<?xml version="1.0" encoding="UTF-8" standalone="no"?>
<!-- Created with Inkscape (http://www.inkscape.org/) -->

<svg
   width="512"
   height="512"
   viewBox="0 0 512 512"
   version="1.1"
   id="SVGRoot"
   sodipodi:docname="Icone-vetor.svg"
   xml:space="preserve"
   inkscape:version="1.2 (dc2aedaf03, 2022-05-15)"
   inkscape:export-filename="Icone-site.png"
   inkscape:export-xdpi="96"
   inkscape:export-ydpi="96"
   xmlns:inkscape="http://www.inkscape.org/namespaces/inkscape"
   xmlns:sodipodi="http://sodipodi.sourceforge.net/DTD/sodipodi-0.dtd"
   xmlns="http://www.w3.org/2000/svg"
   xmlns:svg="http://www.w3.org/2000/svg"><sodipodi:namedview
     id="namedview1105"
     pagecolor="#ffffff"
     bordercolor="#999999"
     borderopacity="1"
     inkscape:showpageshadow="0"
     inkscape:pageopacity="0"
     inkscape:pagecheckerboard="0"
     inkscape:deskcolor="#d1d1d1"
     inkscape:document-units="px"
     showgrid="false"
     inkscape:zoom="0.70710678"
     inkscape:cx="-117.37973"
     inkscape:cy="232.63813"
     inkscape:window-width="1366"
     inkscape:window-height="715"
     inkscape:window-x="-8"
     inkscape:window-y="22"
     inkscape:window-maximized="1"
     inkscape:current-layer="SVGRoot"
     showguides="true"
     inkscape:lockguides="true" /><defs
     id="defs1100" /><path
     id="rect6064"
     style="display:none;fill:#ff8317;fill-opacity:1;stroke:#ff8317;stroke-width:106.403;stroke-linecap:round;stroke-linejoin:round;stroke-dasharray:none;stroke-opacity:1;paint-order:stroke markers fill"
     inkscape:label="Fundo-Icone"
     d="M 75.497226,75.254571 H 439.39427 V 439.15161 H 75.497226 Z" /><path
     id="path14362"
     style="display:inline;fill:#ffffff;fill-opacity:1;stroke:#ffffff;stroke-width:106.403;stroke-linecap:round;stroke-linejoin:round;stroke-dasharray:none;stroke-opacity:1;paint-order:stroke markers fill"
     inkscape:label="Fundo-Icone"
     d="M 75.497226,75.254571 H 439.39427 V 439.15161 H 75.497226 Z" /><g
     inkscape:groupmode="layer"
     id="layer2"
     inkscape:label="Icone"
     style="display:inline;fill:#ff8417;fill-opacity:1"
     transform="matrix(1.8407498,0,0,-1.8407498,106.7012,445.77467)"><g
       id="g7536"
       inkscape:label="Fundo-ciruclo"
       style="display:inline"><circle
         style="display:inline;fill:#ff8417;fill-opacity:1;stroke-width:0.645299"
         id="circle7585"
         cx="80.928192"
         cy="103.50713"
         inkscape:label="primero-plano"
         r="111.80498" /><circle
         style="display:inline;fill:#ffffff;fill-opacity:1;stroke-width:0.589743"
         id="path2857"
         cx="80.928192"
         cy="103.50713"
         inkscape:label="segundo-plano"
         r="102.17938" /></g><path
       style="display:inline;opacity:1;fill:#f37f35;fill-opacity:1;stroke:#f37f35;stroke-opacity:1"
       d="m 16.65968,52.276243 c 0.692877,-2.552375 1.881186,-4.043107 3.79471,-3.97981 l 60.422943,-0.821801 c 8.508225,0.512191 7.171605,10.696886 0.441941,10.980577 l -54.108464,0.02209 v 61.455721 c 0,0 52.430821,43.80282 53.309747,44.36772 0.711627,0.51612 1.193397,0.50519 1.768844,0.0676 1.258561,-0.5078 52.839129,-44.25011 52.839129,-44.25011 l -0.0966,-47.195011 c 0.0476,-6.800933 10.31337,-8.294694 11.06197,-0.418152 l -0.19013,50.932103 c -0.0911,0.9012 -0.48878,2.03679 -1.33426,2.70362 l -59.82006,50.01796 c -2.54442,1.81607 -4.275398,1.55419 -6.54454,0.0654 L 19.85275,127.80014 c -1.756946,-1.66558 -2.779041,-3.04074 -3.33194,-5.22929 z"
       id="path9094"
       inkscape:label="casa"
       sodipodi:nodetypes="cccccccccccccccccc" /><g
       id="g1758"
       inkscape:label="Lupa"><path
         style="display:inline;fill:#f37f35;fill-opacity:1;stroke:#f37f35;stroke-opacity:1"
         d="m 95.37324,71.18742 21.02478,-21.65958 c 6.32726,-5.974445 12.80987,2.23947 8.95404,6.05146 l -21.84709,22.14886 c 20.96141,25.37451 -4.366977,59.7289 -36.564613,46.15989 C 35.875269,106.22086 54.072196,55.429121 95.37324,71.18742 Z"
         id="path964"
         sodipodi:nodetypes="cccccc"
         inkscape:label="Lupa-primeiro" /><circle
         style="fill:#ffffff;fill-opacity:1;stroke:none;stroke-width:1.21429;stroke-opacity:1"
         id="path2258"
         cx="80.883453"
         cy="97.751068"
         r="23.375" /></g></g></svg>
